HIERARCHY
ROOT Hips
{
  OFFSET 0 89.5177 0.535
  CHANNELS 6 Xposition Yposition Zposition Zrotation Xrotation Yrotation
  JOINT Spine
  {
    OFFSET 12.0259 -0.162855 1.69034e-005
    CHANNELS 3 Zrotation Xrotation Yrotation
    JOINT Spine1
    {
      OFFSET 15.3169 -0.0121922 0
      CHANNELS 3 Zrotation Xrotation Yrotation
      JOINT Spine2
      {
        OFFSET 15.3176 -0.0121908 0
        CHANNELS 3 Zrotation Xrotation Yrotation
        JOINT Neck
        {
          OFFSET 19.9142 1.56338 0
          CHANNELS 3 Zrotation Xrotation Yrotation
          JOINT Head
          {
            OFFSET 6.92651 0 0
            CHANNELS 3 Zrotation Xrotation Yrotation
            End Site
            {
              OFFSET 20.7666 0 0
            }
          }
          JOINT LeftShoulder
          {
            OFFSET -6.20654 0.708824 7.28219
            CHANNELS 3 Zrotation Xrotation Yrotation
            JOINT LeftArm
            {
              OFFSET 14.108 0 -1.52588e-005
              CHANNELS 3 Zrotation Xrotation Yrotation
              JOINT LeftForeArm
              {
                OFFSET 28.5802 0 0
                CHANNELS 3 Zrotation Xrotation Yrotation
                JOINT LeftHand
                {
                  OFFSET 27.092 0 0
                  CHANNELS 3 Zrotation Xrotation Yrotation
                  End Site
                  {
                    OFFSET 9.55928 -0.186424 0.145352
                  }
                }
              }
            }
          }
          JOINT RightShoulder
          {
            OFFSET -6.20654 0.708866 -7.28218
            CHANNELS 3 Zrotation Xrotation Yrotation
            JOINT RightArm
            {
              OFFSET 14.108 0 1.52588e-005
              CHANNELS 3 Zrotation Xrotation Yrotation
              JOINT RightForeArm
              {
                OFFSET 28.5802 0 0
                CHANNELS 3 Zrotation Xrotation Yrotation
                JOINT RightHand
                {
                  OFFSET 27.092 0 0
                  CHANNELS 3 Zrotation Xrotation Yrotation
                  End Site
                  {
                    OFFSET 9.55929 -0.186417 -0.145354
                  }
                }
              }
            }
          }
        }
      }
    }
  }
  JOINT LeftUpLeg
  {
    OFFSET 0.005 -0.535 8.837
    CHANNELS 3 Zrotation Xrotation Yrotation
    JOINT LeftLeg
    {
      OFFSET 39.9035 0 0
      CHANNELS 3 Zrotation Xrotation Yrotation
      JOINT LeftFoot
      {
        OFFSET 39.6689 0 0
        CHANNELS 3 Zrotation Xrotation Yrotation
        JOINT LeftToe
        {
          OFFSET 10.1624 13.6296 0
          CHANNELS 3 Zrotation Xrotation Yrotation
          End Site
          {
            OFFSET 8.38147 0 0
          }
        }
      }
    }
  }
  JOINT RightUpLeg
  {
    OFFSET 0.005 -0.535 -8.837
    CHANNELS 3 Zrotation Xrotation Yrotation
    JOINT RightLeg
    {
      OFFSET 39.9035 0 0
      CHANNELS 3 Zrotation Xrotation Yrotation
      JOINT RightFoot
      {
        OFFSET 39.6689 0 0
        CHANNELS 3 Zrotation Xrotation Yrotation
        JOINT RightToe
        {
          OFFSET 10.1624 13.6296 0
          CHANNELS 3 Zrotation Xrotation Yrotation
          End Site
          {
            OFFSET 8.38147 0 0
          }
        }
      }
    }
  }
}
MOTION
Frames:	17
Frame Time:	0.0333333
278.839 89.3226 6.58783 80.8858 -43.746 -4.92251 5.49831 -0.550383 -1.30916 10.9835 -1.22304 -2.55967 10.9835 -1.22304 -2.55968 -8.31225e-012 -9.0191e-006 -5.27751e-005 -6.96399 -37.6317 18.3781 -178.525 -5.13877 -73.9613 9.36836 2.47551 57.8152 -39.9923 6.36111e-015 2.38542e-015 -74.114 -46.9776 -75.4115 -178.557 5.54538 75.3902 -8.14438 14.1969 -57.5051 -36.2917 3.18055e-015 -0 -39.4781 44.0637 39.7106 -7.10058 -5.48983 -178.913 -23.0104 6.36111e-015 -0 13.2237 9.65779 -20.2659 90 -6.36111e-015 -0 -6.94655 -1.4141 -178.828 -25.343 -3.18056e-015 1.59028e-015 17.3266 -8.99439 7.44055 90 3.97569e-016 -9.54166e-015 
279.377 89.2788 6.13793 79.5216 -48.4246 -6.68894 5.6455 -0.439199 -1.47986 11.2785 -1.02121 -2.9094 11.2785 -1.02121 -2.90941 -8.31066e-012 -9.0191e-006 -5.27751e-005 -6.24233 -34.9752 20.2336 -178.507 -5.33304 -74.3294 9.49208 1.87341 55.8196 -41.3022 0 -9.93923e-016 -75.5258 -46.6249 -77.0657 -178.605 5.10099 74.6851 -8.5205 14.2971 -58.7121 -37.1465 -1.27222e-014 -9.54166e-015 -39.5806 43.1378 39.3173 -5.95829 -1.61196 -176.839 -22.6185 0 1.59028e-015 12.2539 9.57119 -21.3532 90 7.95139e-016 -0 -7.73461 -4.90418 -179.37 -27.3195 0 1.59028e-015 20.5029 -10.1613 9.03412 90 3.97569e-016 3.18055e-015 
279.597 89.1832 5.71073 78.6996 -51.2516 -6.8017 5.64557 -0.697445 -1.81888 11.2677 -1.5696 -3.56072 11.2677 -1.5696 -3.56073 -8.30907e-012 -9.0191e-006 -5.27751e-005 -4.55741 -33.105 21.492 -178.703 -4.81631 -74.9071 9.42963 1.65671 53.1852 -40.877 0 -4.47266e-015 -75.8306 -46.4483 -77.4094 -178.499 5.3432 74.2883 -8.00757 13.84 -61.1191 -38.1014 6.36111e-015 -3.18055e-015 -40.7262 42.5623 40.1006 -5.33041 2.93843 -176.221 -22.4766 0 -2.38542e-015 13.2059 10.5078 -22.8398 90 3.18055e-015 3.18055e-015 -7.93451 -14.1522 177.112 -26.4029 0 -0 19.3578 -7.05368 5.08573 90 1.59028e-015 1.27222e-014 
279.601 89.1592 5.27517 77.804 -52.8574 -6.70256 5.62402 -1.1444 -2.04794 11.2075 -2.48282 -3.9751 11.2075 -2.48282 -3.97511 -8.30748e-012 -9.0191e-006 -5.27751e-005 -3.20487 -31.8075 21.3833 -178.805 -4.44014 -74.9177 8.91199 1.35043 50.4758 -40.2646 6.36111e-015 5.67779e-015 -75.9521 -46.0604 -77.5782 -178.208 6.15755 73.7361 -7.72416 12.6182 -62.6708 -39.2227 6.36111e-015 -3.18055e-015 -40.8403 42.9387 40.2972 -3.79035 4.68123 -176.878 -21.1372 0 -2.38542e-015 12.9718 10.3436 -22.2076 90 -3.97569e-015 3.18055e-015 -8.15424 -23.4197 172.627 -23.6752 1.59028e-015 -3.97569e-016 15.7894 -2.39103 1.1281 90 0 3.18055e-015 
279.723 89.2172 4.6238 76.5799 -54.986 -7.63761 5.58164 -1.41551 -2.02628 11.1155 -3.02011 -3.90711 11.1155 -3.02011 -3.90712 -8.3043e-012 -9.0191e-006 -5.27751e-005 -3.15394 -30.9596 19.6893 -178.825 -4.36264 -74.9074 8.60312 1.21179 49.2022 -41.1321 -9.54166e-015 -3.37934e-015 -76.3799 -45.6152 -78.0927 -178.013 6.76156 73.5815 -7.4359 10.7861 -63.1142 -39.9905 6.36111e-015 6.36111e-015 -39.8075 43.7694 39.6941 -1.44097 4.73821 -177.118 -18.6078 6.36111e-015 7.95139e-016 11.3011 9.00012 -19.9935 90 -7.95139e-016 3.18055e-015 -8.68073 -27.2689 169.372 -22.113 0 -0 12.6283 0.407513 -0.957324 90 -1.49089e-016 -2.38542e-015 
280.114 89.2974 3.69473 74.9785 -58.4196 -9.73067 5.50465 -1.36879 -1.85594 10.9674 -2.90817 -3.57355 10.9674 -2.90817 -3.57356 -8.31066e-012 -9.0191e-006 -5.27751e-005 -3.8941 -30.3098 17.687 -178.736 -4.77643 -75.1568 7.97116 1.31482 49.5637 -43.7004 -6.36111e-015 1.98785e-015 -77.4071 -44.9473 -79.273 -177.955 6.87562 73.3938 -6.19861 9.30601 -62.6254 -39.6895 6.36111e-015 3.18055e-015 -38.3455 43.9324 38.3717 0.275522 6.46759 -176.365 -17.4328 3.18055e-015 -1.59028e-015 10.6333 7.7926 -17.1728 90 1.19271e-015 3.18055e-015 -9.64015 -25.5289 167.901 -23.0645 -7.95139e-016 -2.98177e-016 10.5428 0.498173 -1.14184 90 4.96962e-017 -0 
280.622 89.3381 2.57981 73.7552 -62.0572 -11.7544 5.31004 -1.31634 -1.62709 10.5852 -2.77665 -3.12657 10.5852 -2.77665 -3.12658 -8.30748e-012 -9.0191e-006 -5.27751e-005 -4.14671 -29.506 16.6045 -178.677 -5.01783 -75.2117 7.04743 2.33594 50.34 -47.8727 -9.54166e-015 7.95139e-016 -78.1775 -44.3608 -80.0861 -177.92 6.85894 73.0833 -4.16676 9.06312 -61.6324 -37.4212 1.59028e-015 -0 -37.8019 43.4544 37.6911 1.66165 8.74298 -175.348 -16.1394 -1.27222e-014 -1.59028e-015 10.0187 6.74842 -14.7799 90 1.59028e-015 9.54166e-015 -10.0735 -22.3172 167.383 -22.9157 0 2.98177e-016 9.33721 -1.82349 3.88068 90 2.48481e-017 -1.59028e-015 
281.137 89.2388 1.31163 72.4537 -65.394 -13.5586 5.05742 -1.39096 -1.46447 10.0825 -2.90472 -2.80178 10.0825 -2.90473 -2.80179 -8.31066e-012 -9.0191e-006 -5.27751e-005 -3.54826 -28.7213 16.5772 -178.656 -5.0478 -75.064 5.60845 4.24324 51.0167 -53.2531 4.77083e-015 -0 -78.3887 -44.6209 -80.4165 -177.836 7.01178 72.8007 -1.3098 10.4042 -60.8907 -33.2015 -1.59028e-015 7.95139e-016 -38.32 42.9502 38.0405 2.97094 11.0261 -174.514 -15.0504 0 -7.95139e-016 9.78569 6.08704 -13.281 90 -1.98785e-016 -6.36111e-015 -11.0141 -21.4725 166.316 -22.0857 1.98785e-016 9.00743e-016 10.5009 -4.44508 9.59576 90 -5.96354e-016 1.59028e-015 
281.701 88.9969 -0.292802 69.3926 -68.5757 -16.6744 4.86351 -1.53826 -1.39137 9.69386 -3.18807 -2.64863 9.69385 -3.18807 -2.64864 -8.31066e-012 -9.0191e-006 -5.27751e-005 -2.37169 -28.524 16.9358 -178.67 -4.94197 -74.9151 3.8116 6.11542 51.8401 -59.0631 -3.18055e-015 -3.18055e-015 -78.0028 -45.5695 -80.0213 -177.845 6.95852 72.7428 2.72465 12.8138 -60.6923 -28.3969 3.57812e-015 -2.18663e-015 -39.2573 42.1406 38.9049 4.99046 14.348 -173.87 -13.9762 3.18055e-015 1.59028e-015 10.2632 5.99153 -13.0572 90 -6.95746e-016 -3.18055e-015 -12.9147 -24.7612 164.411 -21.374 -1.59028e-015 -2.98177e-016 10.8047 -4.42679 8.72732 90 -1.39149e-015 3.97569e-016 
282.471 88.5927 -2.22132 63.8308 -71.6792 -22.2866 4.71743 -1.7262 -1.33046 9.40027 -3.55512 -2.51599 9.40027 -3.55512 -2.516 -8.30271e-012 -9.0191e-006 -5.27751e-005 -0.757313 -28.6749 17.3659 -178.652 -4.92759 -74.6813 1.80773 7.54424 52.6926 -65.4069 -3.97569e-016 -3.97569e-015 -77.4435 -46.7315 -79.4686 -177.861 6.88473 72.6981 6.43755 15.1798 -60.4319 -24.5479 7.95139e-016 -2.38542e-015 -40.4014 41.6119 40.1755 7.0912 17.1305 -173.084 -13.9033 0 1.59028e-015 10.691 5.60475 -12.1823 90 -5.96354e-016 3.18055e-015 -15.1935 -30.8198 162.157 -20.1122 3.18056e-015 1.39149e-015 8.77647 -1.26094 3.11233 90 0 6.36111e-015 
283.639 88.0726 -4.32597 55.4386 -74.6826 -31.5309 4.58927 -1.90233 -1.14118 9.14762 -3.8891 -2.12803 9.14762 -3.88911 -2.12804 -8.31225e-012 -9.0191e-006 -5.27751e-005 0.855248 -28.9957 17.5561 -178.62 -4.96974 -74.4578 0.0569934 7.92999 53.6466 -72.06 -2.38542e-015 9.93923e-016 -77.4183 -47.1036 -79.5194 -177.839 6.95707 72.6996 8.87248 16.9206 -60.0001 -22.1133 -1.59028e-015 7.95139e-016 -40.7534 41.4078 40.5987 8.09887 19.2223 -171.182 -15.828 6.36111e-015 1.59028e-015 11.3304 4.65775 -10.1312 90 -1.98785e-016 -0 -16.7278 -35.6776 160.87 -19.7965 0 1.39149e-015 4.23154 2.11963 1.74102 90 0 6.36111e-015 
285.132 87.3959 -6.38846 41.7679 -77.823 -46.4912 4.44493 -1.99909 -0.899861 8.86626 -4.06126 -1.64331 8.86626 -4.06126 -1.64331 -8.30589e-012 -9.0191e-006 -5.27751e-005 2.07707 -29.2886 17.252 -178.566 -5.02706 -74.0576 -1.06448 6.81204 54.4278 -78.8296 3.97569e-016 -7.95139e-016 -77.815 -47.1879 -80.0111 -177.775 7.18953 72.7562 9.59642 17.794 -59.3424 -21.151 -6.36111e-015 3.97569e-015 -40.8477 41.5709 40.9421 7.06148 20.9749 -168.365 -21.8879 -1.27222e-014 -1.59028e-015 15.8519 2.38587 -6.76808 90 -1.19271e-015 6.36111e-015 -15.6171 -34.0939 163.62 -22.604 0 5.96354e-016 3.01138 0.878675 0.963829 90 -6.06643e-021 -0 
286.893 86.7927 -8.57242 19.2795 -78.9909 -70.8443 4.5059 -2.12343 -0.539661 9.00102 -4.28215 -0.911422 9.00102 -4.28215 -0.911431 -8.3043e-012 -9.0191e-006 -5.27751e-005 3.22985 -29.7645 16.6135 -178.568 -4.9599 -73.8761 -1.77975 4.44535 55.4202 -85.4936 2.78299e-015 -0 -77.3861 -47.3555 -79.4075 -177.711 7.51999 73.0174 8.73614 17.7078 -58.5241 -21.3223 0 3.97569e-015 -41.3266 41.9734 41.7295 6.57936 22.3871 -164.736 -28.2148 0 -0 19.054 -0.167495 -3.18089 90 7.95139e-016 9.54166e-015 -12.9516 -29.7086 168.166 -26.9144 3.18056e-015 3.18056e-015 6.55375 -0.433443 0.162073 90 -3.03321e-021 -0 
289.015 86.4144 -10.9097 -2.58804 -77.8705 -93.9668 4.63942 -2.32293 -0.401132 9.27403 -4.67019 -0.613374 9.27403 -4.67019 -0.613383 -8.30589e-012 -9.0191e-006 -5.27751e-005 5.18368 -30.6186 17.0448 -178.583 -5.04229 -74.2798 -3.02988 1.13674 56.1673 -91.8605 2.38542e-015 1.59028e-015 -77.4758 -47.6671 -79.5237 -177.561 7.8337 72.6492 7.41776 17.2616 -57.4387 -22.0394 3.18055e-015 2.38542e-015 -41.2131 42.2897 41.6727 6.4249 22.6973 -161.487 -35.1495 0 -1.59028e-015 19.1107 -2.60889 -0.796561 90 7.95139e-016 -0 -9.70378 -25.9922 171.903 -29.9161 0 -0 9.79746 -0.0566783 -0.601456 90 -1.21329e-020 3.18055e-015 
291.202 86.4106 -12.9354 -19.2504 -76.4571 -111.275 4.51752 -2.53398 -0.467984 9.02758 -5.09644 -0.735477 9.02758 -5.09644 -0.735486 -8.31066e-012 -9.0191e-006 -5.27751e-005 8.50155 -32.0069 18.5164 -178.677 -4.91805 -74.9243 -4.686 -2.80946 55.8155 -98.0494 2.38542e-015 6.36111e-015 -78.1188 -47.8525 -80.3382 -177.325 8.22005 71.9038 7.07785 16.824 -57.1322 -22.5719 3.18055e-015 -3.18055e-015 -41.9203 42.0256 42.0947 4.62988 20.153 -159.461 -43.8368 -1.59028e-015 -0 15.0027 -6.10522 1.83226 90 0 -0 -7.05592 -22.6404 175.178 -30.5882 6.36111e-015 -0 11.7462 0.264681 -1.5653 90 6.06643e-021 -0 
293.031 86.6285 -14.8266 -33.564 -74.785 -125.56 4.22375 -2.72936 -0.627586 8.43188 -5.49697 -1.05365 8.43188 -5.49697 -1.05365 -8.30748e-012 -9.0191e-006 -5.27751e-005 12.0335 -33.8562 19.6966 -178.713 -5.09047 -75.7953 -6.98617 -7.49571 55.3516 -104.284 -1.59028e-015 3.18055e-015 -78.1402 -47.6495 -80.2724 -177.175 8.7329 71.9982 7.97442 16.2683 -58.2778 -22.8854 6.36111e-015 1.59028e-015 -43.0715 41.9538 43.1819 1.89912 16.0803 -159.586 -52.3045 -9.54166e-015 -3.97569e-015 6.42023 -10.0084 5.2187 90 1.59028e-015 1.59028e-014 -5.22815 -19.3779 177.317 -30.1136 -6.36111e-015 -2.38542e-015 12.9354 0.178819 -2.30806 90 1.51661e-020 9.54166e-015 
294.415 86.9891 -16.6694 -43.1455 -72.4656 -134.56 4.07165 -2.90674 -0.788221 8.11881 -5.86148 -1.37005 8.11881 -5.86148 -1.37006 -8.30748e-012 -9.0191e-006 -5.27751e-005 14.144 -36.4108 20.1239 -178.728 -5.33614 -76.5675 -10.3773 -13.4157 54.6306 -110.533 -3.18055e-015 -3.18055e-015 -77.9598 -48.0748 -80.0013 -177.138 9.14026 72.5286 8.60266 15.1524 -59.0869 -23.4528 -6.36111e-015 1.59028e-015 -43.8416 42.7949 44.427 0.477885 11.5002 -162.201 -57.2066 1.98785e-015 -7.95139e-016 -1.99946 -9.72847 5.72199 90 -3.18055e-015 -2.78299e-015 -3.35343 -17.4548 178.076 -29.0012 0 -7.95139e-016 13.6347 -0.741607 -2.85376 90 6.06643e-021 -0 
